<?xml version="1.0" encoding="UTF-8" standalone="no"?>
<svg
   width="51"
   height="50"
   viewBox="0 0 51 50"
   fill="none"
   version="1.1"
   id="svg13"
   sodipodi:docname="Discover-2.svg"
   inkscape:version="1.2.2 (732a01da63, 2022-12-09)"
   xmlns:inkscape="http://www.inkscape.org/namespaces/inkscape"
   xmlns:sodipodi="http://sodipodi.sourceforge.net/DTD/sodipodi-0.dtd"
   xmlns="http://www.w3.org/2000/svg"
   xmlns:svg="http://www.w3.org/2000/svg">
  <sodipodi:namedview
     id="namedview15"
     pagecolor="#ffffff"
     bordercolor="#000000"
     borderopacity="0.25"
     inkscape:showpageshadow="2"
     inkscape:pageopacity="0.0"
     inkscape:pagecheckerboard="0"
     inkscape:deskcolor="#d1d1d1"
     showgrid="false"
     inkscape:zoom="16.08"
     inkscape:cx="25.497512"
     inkscape:cy="29.975124"
     inkscape:window-width="1920"
     inkscape:window-height="991"
     inkscape:window-x="-9"
     inkscape:window-y="-9"
     inkscape:window-maximized="1"
     inkscape:current-layer="svg13" />
  <g
     clip-path="url(#clip0_116_1305)"
     id="g6">
    <path
       d="m 48.7699,24.9994 c 0,6.1569 -2.4458,12.0615 -6.7993,16.415 -4.3535,4.3535 -10.2582,6.7993 -16.415,6.7993 -6.1568,0 -12.0615,-2.4458 -16.41498,-6.7993 C 4.78709,37.0609 2.34131,31.1563 2.34131,24.9994 m 46.42859,0 c 0,-6.1568 -2.4458,-12.0614 -6.7993,-16.41494 -4.3535,-4.35352 -10.2582,-6.7993 -16.415,-6.7993 -6.1568,0 -12.0615,2.44578 -16.41498,6.7993 C 4.78709,12.938 2.34131,18.8426 2.34131,24.9994 m 46.42859,0 H 2.34131"
       stroke="#F26A27"
       stroke-width="4"
       stroke-linecap="round"
       stroke-linejoin="round"
       id="path2"
       style="stroke:#808080" />
    <path
       d="m 34.4841,24.9994 c -0.4386,8.4893 -3.5654,16.6191 -8.9286,23.2143 -5.3631,-6.5952 -8.49,-14.725 -8.9285,-23.2143 0.4385,-8.4892 3.5654,-16.61906 8.9285,-23.21424 5.3632,6.59518 8.49,14.72504 8.9286,23.21424 z"
       stroke="#F26A27"
       stroke-width="4"
       stroke-linecap="round"
       stroke-linejoin="round"
       id="path4"
       style="stroke:#808080" />
  </g>
  <defs
     id="defs11">
    <clipPath
       id="clip0_116_1305">
      <rect
         width="50"
         height="50"
         fill="white"
         transform="translate(0.555664)"
         id="rect8" />
    </clipPath>
  </defs>
</svg>
