<?xml version="1.0" encoding="UTF-8" standalone="no"?>
<svg
   width="46"
   height="66"
   viewBox="0 0 46 66"
   fill="none"
   version="1.1"
   id="svg4"
   sodipodi:docname="Discover-1.svg"
   inkscape:version="1.2.2 (732a01da63, 2022-12-09)"
   xmlns:inkscape="http://www.inkscape.org/namespaces/inkscape"
   xmlns:sodipodi="http://sodipodi.sourceforge.net/DTD/sodipodi-0.dtd"
   xmlns="http://www.w3.org/2000/svg"
   xmlns:svg="http://www.w3.org/2000/svg">
  <defs
     id="defs8" />
  <sodipodi:namedview
     id="namedview6"
     pagecolor="#ffffff"
     bordercolor="#000000"
     borderopacity="0.25"
     inkscape:showpageshadow="2"
     inkscape:pageopacity="0.0"
     inkscape:pagecheckerboard="0"
     inkscape:deskcolor="#d1d1d1"
     showgrid="false"
     inkscape:zoom="12.181818"
     inkscape:cx="22.985075"
     inkscape:cy="33.041045"
     inkscape:window-width="1920"
     inkscape:window-height="991"
     inkscape:window-x="-9"
     inkscape:window-y="-9"
     inkscape:window-maximized="1"
     inkscape:current-layer="svg4" />
  <path
     d="M31.0343 41.25C31.0188 39.5099 30.5542 37.8033 29.6855 36.2954C28.8169 34.7876 27.5736 33.5295 26.0761 32.6432L41.3406 6.1875L37.7725 4.125L22.1449 31.1974C20.227 30.7691 18.2323 30.8285 16.3433 31.37C14.4542 31.9115 12.731 32.918 11.3313 34.2973C3.60926 41.745 4.20739 59.1566 4.23626 59.895C4.25758 60.4276 4.48426 60.9312 4.86876 61.3004C5.25327 61.6695 5.76575 61.8754 6.29876 61.875H37.2177C37.6506 61.875 38.0725 61.7388 38.4237 61.4857C38.7748 61.2326 39.0375 60.8754 39.1744 60.4647C39.3112 60.0541 39.3155 59.6107 39.1864 59.1975C39.0573 58.7843 38.8015 58.4222 38.4552 58.1625C31.1539 52.6845 31.0343 41.3614 31.0343 41.25ZM20.5713 35.0563C22.222 35.0744 23.8022 35.7284 24.9831 36.882C26.164 38.0356 26.8547 39.6001 26.9114 41.25C26.9114 41.3284 26.9155 41.679 26.9464 42.2173L14.7777 36.8053C15.5793 36.1443 16.5042 35.6493 17.4989 35.3491C18.4935 35.0488 19.5378 34.9493 20.5713 35.0563ZM27.8313 57.75C26.1827 56.0714 25.1318 53.8972 24.8406 51.5625H20.7156C20.8634 53.7576 21.549 55.8826 22.7121 57.75H18.1272C17.2786 55.0734 16.7626 52.3026 16.5906 49.5H12.4656C12.5978 52.2943 13.0582 55.0633 13.8372 57.75H8.34063C8.40457 53.9632 8.93876 45.5978 12.0593 40.1094L27.5961 47.0188C28.341 50.8954 29.9326 54.5597 32.2574 57.75H27.8313Z"
     fill="#808080"
     id="path2" />
</svg>
