<svg width="51" height="50" viewBox="0 0 51 50" fill="none" xmlns="http://www.w3.org/2000/svg">
<path d="M17.0275 34.2839L20.6963 33.2256L42.7858 10.8714C42.9601 10.6929 43.0571 10.453 43.0559 10.2035C43.0547 9.95403 42.9555 9.71502 42.7796 9.53812L41.4567 8.20062C41.3712 8.11278 41.2691 8.04284 41.1562 7.9949C41.0434 7.94696 40.9222 7.92197 40.7996 7.92139C40.6771 7.92081 40.5556 7.94464 40.4424 7.99151C40.3291 8.03838 40.2263 8.10734 40.14 8.19437L18.1088 30.4902L17.0275 34.2839ZM44.0754 5.55062L45.3983 6.8902C47.2233 8.73812 47.24 11.7194 45.4317 13.5485L22.6692 36.586L14.8275 38.8444C14.5904 38.911 14.3426 38.9303 14.0981 38.9011C13.8535 38.872 13.6172 38.7949 13.4024 38.6744C13.1877 38.5539 12.9988 38.3922 12.8465 38.1987C12.6943 38.0052 12.5816 37.7835 12.515 37.5464C12.4128 37.2027 12.4114 36.8368 12.5108 36.4923L14.7921 28.4923L37.4942 5.5152C37.9259 5.08053 38.4398 4.73616 39.0059 4.50218C39.5721 4.26821 40.1792 4.1493 40.7918 4.1524C41.4044 4.15551 42.0102 4.28055 42.574 4.52026C43.1378 4.75996 43.6482 5.11159 44.0754 5.55062ZM20.0775 7.9527C21.1108 7.9527 21.9483 8.80062 21.9483 9.84645C21.95 10.0937 21.9029 10.3388 21.8097 10.5678C21.7166 10.7968 21.5792 11.0052 21.4054 11.1811C21.2317 11.357 21.025 11.4969 20.7971 11.5928C20.5693 11.6888 20.3247 11.7388 20.0775 11.7402H12.5942C10.5275 11.7402 8.85251 13.436 8.85251 15.5256V38.2464C8.85251 40.3381 10.5275 42.034 12.5942 42.034H35.0442C37.1108 42.034 38.7879 40.3381 38.7879 38.2464V30.6735C38.7879 29.6277 39.6254 28.7798 40.6588 28.7798C41.6921 28.7798 42.5296 29.6277 42.5296 30.6756V38.2464C42.5296 42.4298 39.1775 45.8214 35.0442 45.8214H12.5942C8.46084 45.8214 5.11084 42.4298 5.11084 38.2464V15.5256C5.11084 11.3444 8.46084 7.9527 12.5942 7.9527H20.0775Z" fill="#808080"/>
</svg>
