<svg width="51" height="50" viewBox="0 0 51 50" fill="none" xmlns="http://www.w3.org/2000/svg">
<path d="M25.6665 39.603L25.6873 39.5801" stroke="#808080" stroke-width="4" stroke-linecap="round" stroke-linejoin="round"/>
<path d="M38.1665 37.4994V44.5827C38.1665 44.7468 38.1342 44.9094 38.0714 45.061C38.0085 45.2127 37.9165 45.3505 37.8004 45.4666C37.6843 45.5826 37.5465 45.6747 37.3949 45.7375C37.2432 45.8004 37.0807 45.8327 36.9165 45.8327H14.4165C14.2524 45.8327 14.0898 45.8004 13.9381 45.7375C13.7865 45.6747 13.6487 45.5826 13.5326 45.4666C13.4165 45.3505 13.3245 45.2127 13.2617 45.061C13.1988 44.9094 13.1665 44.7468 13.1665 44.5827V37.4994M38.1665 12.4993V5.41602C38.1665 5.08449 38.0348 4.76655 37.8004 4.53213C37.566 4.29771 37.248 4.16602 36.9165 4.16602H14.4165C14.085 4.16602 13.767 4.29771 13.5326 4.53213C13.2982 4.76655 13.1665 5.08449 13.1665 5.41602V12.4993" stroke="#808080" stroke-width="4" stroke-linecap="round"/>
<path d="M32.958 17.707L40.2497 24.9987L32.958 32.2904M18.3747 17.707L11.083 24.9987L18.3747 32.2904" stroke="#808080" stroke-width="4" stroke-linecap="round" stroke-linejoin="round"/>
</svg>
