<svg width="51" height="50" viewBox="0 0 51 50" fill="none" xmlns="http://www.w3.org/2000/svg">
<path d="M10.75 10.4167C10.75 9.3116 11.189 8.25179 11.9704 7.47039C12.7518 6.68899 13.8116 6.25 14.9167 6.25H35.75C36.8551 6.25 37.9149 6.68899 38.6963 7.47039C39.4777 8.25179 39.9167 9.3116 39.9167 10.4167V14.5833C39.9167 15.6884 39.4777 16.7482 38.6963 17.5296C37.9149 18.311 36.8551 18.75 35.75 18.75H14.9167C13.8116 18.75 12.7518 18.311 11.9704 17.5296C11.189 16.7482 10.75 15.6884 10.75 14.5833V10.4167Z" stroke="#808080" stroke-width="4" stroke-linecap="round" stroke-linejoin="round"/>
<path d="M39.9165 12.5H41.9998C43.1049 12.5 44.1647 12.939 44.9461 13.7204C45.7275 14.5018 46.1665 15.5616 46.1665 16.6667C46.1665 19.4293 45.069 22.0789 43.1155 24.0324C41.162 25.9859 38.5125 27.0833 35.7498 27.0833H25.3332V31.25M21.1665 33.3333C21.1665 32.7808 21.386 32.2509 21.7767 31.8602C22.1674 31.4695 22.6973 31.25 23.2498 31.25H27.4165C27.969 31.25 28.4989 31.4695 28.8896 31.8602C29.2803 32.2509 29.4998 32.7808 29.4998 33.3333V41.6667C29.4998 42.2192 29.2803 42.7491 28.8896 43.1398C28.4989 43.5305 27.969 43.75 27.4165 43.75H23.2498C22.6973 43.75 22.1674 43.5305 21.7767 43.1398C21.386 42.7491 21.1665 42.2192 21.1665 41.6667V33.3333Z" stroke="#808080" stroke-width="4" stroke-linecap="round" stroke-linejoin="round"/>
</svg>
