<svg width="51" height="50" viewBox="0 0 51 50" fill="none" xmlns="http://www.w3.org/2000/svg">
<path d="M7.47801 42.9212L20.7363 29.6629M37.4322 23.7671L33.4634 35.6754C33.3998 35.8659 33.2912 36.0382 33.1469 36.1778C33.0026 36.3174 32.8267 36.4202 32.6343 36.4775L8.3051 43.7108C8.08591 43.7759 7.85307 43.7796 7.63191 43.7216C7.41075 43.6635 7.20975 43.546 7.05078 43.3816C6.89181 43.2173 6.78096 43.0125 6.73029 42.7895C6.67963 42.5665 6.69109 42.334 6.76343 42.1171L14.6634 18.4212C14.72 18.2511 14.8126 18.0951 14.9348 17.9639C15.057 17.8327 15.2061 17.7293 15.3718 17.6608L26.5947 13.04C26.8228 12.9457 27.0738 12.9212 27.3159 12.9694C27.558 13.0176 27.7804 13.1364 27.9551 13.3108L37.1301 22.4879C37.2943 22.652 37.4095 22.8586 37.4628 23.0846C37.5162 23.3105 37.5056 23.5468 37.4322 23.7671Z" stroke="#808080" stroke-width="3.5" stroke-linecap="round" stroke-linejoin="round"/>
<path d="M38.9509 6.62945L43.8759 11.5545C44.246 11.9085 44.5416 12.333 44.7454 12.8029C44.9493 13.2728 45.0572 13.7786 45.0628 14.2908C45.0685 14.803 44.9718 15.3111 44.7784 15.7854C44.585 16.2597 44.2988 16.6906 43.9367 17.0527C43.5745 17.4149 43.1436 17.7011 42.6693 17.8945C42.195 18.0879 41.6869 18.1846 41.1747 18.1789C40.6626 18.1733 40.1567 18.0654 39.6868 17.8615C39.2169 17.6577 38.7925 17.3621 38.4384 16.992L33.5113 12.067C32.8164 11.3406 32.4335 10.371 32.4446 9.36581C32.4557 8.36062 32.8599 7.39974 33.5708 6.68892C34.2816 5.9781 35.2425 5.57385 36.2476 5.56274C37.2528 5.55162 38.2245 5.93452 38.9509 6.62945Z" fill="#808080" stroke="#808080" stroke-width="3.5" stroke-linecap="round" stroke-linejoin="round"/>
<path d="M25.155 25.2411C24.8667 24.9427 24.5219 24.7046 24.1406 24.5408C23.7594 24.377 23.3493 24.2908 22.9344 24.2872C22.5194 24.2836 22.1079 24.3627 21.7239 24.5198C21.3398 24.6769 20.9909 24.909 20.6975 25.2024C20.4041 25.4958 20.1721 25.8447 20.0149 26.2288C19.8578 26.6128 19.7787 27.0243 19.7823 27.4393C19.786 27.8542 19.8722 28.2643 20.0359 28.6455C20.1997 29.0268 20.4378 29.3716 20.7363 29.6599C21.3256 30.2291 22.115 30.5441 22.9344 30.537C23.7537 30.5299 24.5375 30.2012 25.1169 29.6218C25.6963 29.0424 26.025 28.2586 26.0321 27.4393C26.0392 26.6199 25.7242 25.8305 25.155 25.2411Z" stroke="#808080" stroke-width="3.5" stroke-linecap="round" stroke-linejoin="round"/>
</svg>
