<svg width="51" height="50" viewBox="0 0 51 50" fill="none" xmlns="http://www.w3.org/2000/svg">
<path fill-rule="evenodd" clip-rule="evenodd" d="M25.222 5.72852C20.1111 5.72852 15.2095 7.75883 11.5955 11.3728C7.98149 14.9868 5.95117 19.8884 5.95117 24.9994C5.95117 30.1103 7.98149 35.0119 11.5955 38.6259C15.2095 42.2399 20.1111 44.2702 25.222 44.2702C30.333 44.2702 35.2346 42.2399 38.8485 38.6259C42.4625 35.0119 44.4928 30.1103 44.4928 24.9994C44.4928 19.8884 42.4625 14.9868 38.8485 11.3728C35.2346 7.75883 30.333 5.72852 25.222 5.72852ZM2.82617 24.9994C2.82617 12.6306 12.8533 2.60352 25.222 2.60352C37.5908 2.60352 47.6178 12.6306 47.6178 24.9994C47.6178 37.3681 37.5908 47.3952 25.222 47.3952C12.8533 47.3952 2.82617 37.3681 2.82617 24.9994ZM25.222 10.9368C25.6364 10.9368 26.0338 11.1015 26.3269 11.3945C26.6199 11.6875 26.7845 12.0849 26.7845 12.4993V13.1598C30.1803 13.7681 33.0345 16.3202 33.0345 19.791C33.0345 20.2054 32.8699 20.6028 32.5769 20.8959C32.2838 21.1889 31.8864 21.3535 31.472 21.3535C31.0576 21.3535 30.6602 21.1889 30.3672 20.8959C30.0741 20.6028 29.9095 20.2054 29.9095 19.791C29.9095 18.3785 28.7345 16.8806 26.7845 16.3473V23.5764C30.1803 24.1848 33.0345 26.7369 33.0345 30.2077C33.0345 33.6785 30.1803 36.2306 26.7845 36.8389V37.4994C26.7845 37.9138 26.6199 38.3112 26.3269 38.6042C26.0338 38.8972 25.6364 39.0619 25.222 39.0619C24.8076 39.0619 24.4102 38.8972 24.1172 38.6042C23.8241 38.3112 23.6595 37.9138 23.6595 37.4994V36.8389C20.2637 36.2306 17.4095 33.6785 17.4095 30.2077C17.4095 29.7933 17.5741 29.3959 17.8672 29.1028C18.1602 28.8098 18.5576 28.6452 18.972 28.6452C19.3864 28.6452 19.7838 28.8098 20.0769 29.1028C20.3699 29.3959 20.5345 29.7933 20.5345 30.2077C20.5345 31.6202 21.7095 33.1181 23.6595 33.6494V26.4223C20.2637 25.8139 17.4095 23.2619 17.4095 19.791C17.4095 16.3202 20.2637 13.7681 23.6595 13.1598V12.4993C23.6595 12.0849 23.8241 11.6875 24.1172 11.3945C24.4102 11.1015 24.8076 10.9368 25.222 10.9368ZM23.6595 16.3473C21.7095 16.8806 20.5345 18.3785 20.5345 19.791C20.5345 21.2035 21.7095 22.7014 23.6595 23.2327V16.3473ZM26.7845 26.7639V33.6514C28.7345 33.1181 29.9095 31.6223 29.9095 30.2077C29.9095 28.7952 28.7345 27.2952 26.7845 26.7639Z" fill="#808080"/>
</svg>
