<svg width="51" height="50" viewBox="0 0 51 50" fill="none" xmlns="http://www.w3.org/2000/svg">
<path d="M9.22186 31.2509V39.5842M25.8885 18.7509V39.5842M46.7219 45.8342H5.05519M42.5552 27.0842V39.5842M12.5552 18.3342C12.2269 17.8965 11.8156 17.5277 11.3447 17.2489C10.8739 16.9701 10.3528 16.7868 9.81112 16.7094C9.26944 16.632 8.71783 16.6621 8.18777 16.7979C7.65772 16.9337 7.1596 17.1726 6.72186 17.5009C6.28412 17.8292 5.91533 18.2405 5.63655 18.7113C5.35777 19.1821 5.17445 19.7033 5.09707 20.2449C4.94079 21.3389 5.22549 22.4501 5.88853 23.3342C6.55157 24.2183 7.53864 24.8027 8.6326 24.959C9.72657 25.1153 10.8378 24.8306 11.7219 24.1675C12.6059 23.5045 13.1904 22.5174 13.3466 21.4235C13.5029 20.3295 13.2182 19.2183 12.5552 18.3342ZM12.5552 18.3342L22.5552 10.8342M22.5552 10.8342C22.9811 11.403 23.5455 11.8534 24.1946 12.1426C24.8437 12.4318 25.5559 12.5502 26.2637 12.4865C26.9714 12.4228 27.6511 12.1792 28.2382 11.7788C28.8252 11.3784 29.3001 10.8345 29.6177 10.1988M22.5552 10.8342C22.1105 10.2404 21.8325 9.53872 21.7497 8.80154C21.6669 8.06437 21.7824 7.31845 22.0843 6.64086C22.3862 5.96326 22.8635 5.37854 23.467 4.94711C24.0704 4.51567 24.7781 4.25316 25.5169 4.18669C26.2558 4.12021 26.999 4.25219 27.6697 4.56898C28.3405 4.88578 28.9145 5.3759 29.3325 5.98873C29.7505 6.60156 29.9973 7.31487 30.0475 8.05499C30.0976 8.7951 29.9492 9.53518 29.6177 10.1988M29.6177 10.1988L38.826 14.803C38.5812 15.2924 38.4351 15.8253 38.3962 16.3712C38.3573 16.9171 38.4263 17.4653 38.5992 17.9845C38.9485 19.0332 39.7 19.9001 40.6885 20.3946C41.677 20.8891 42.8215 20.9707 43.8701 20.6214C44.9187 20.2722 45.7857 19.5206 46.2802 18.5321C46.7645 17.5451 46.8391 16.4067 46.4878 15.3649C46.1364 14.3231 45.3875 13.4624 44.4043 12.9704C43.4211 12.4784 42.2832 12.3949 41.2387 12.7382C40.1943 13.0814 39.3278 13.8236 38.8281 14.803" stroke="#808080" stroke-width="4" stroke-linecap="round" stroke-linejoin="round"/>
</svg>
