<svg width="91" height="91" viewBox="0 0 91 91" fill="none" xmlns="http://www.w3.org/2000/svg">
<path d="M19.685 75.75C17.9575 75.75 16.5163 75.1725 15.3613 74.0175C14.2063 72.8625 13.6275 71.42 13.625 69.69V21.81C13.625 20.0825 14.2038 18.6412 15.3613 17.4862C16.5188 16.3312 17.9587 15.7525 19.6812 15.75H54.5863V19.5H19.685C19.1075 19.5 18.5775 19.74 18.095 20.22C17.6125 20.7 17.3725 21.23 17.375 21.81V69.6938C17.375 70.2687 17.615 70.7975 18.095 71.28C18.575 71.7625 19.1037 72.0025 19.6812 72H67.5688C68.1438 72 68.6725 71.76 69.155 71.28C69.6375 70.8 69.8775 70.2713 69.875 69.6938V34.7887H73.625V69.6938C73.625 71.4188 73.0475 72.86 71.8925 74.0175C70.7375 75.175 69.295 75.7525 67.565 75.75H19.685ZM30.5 62.625V58.875H56.75V62.625H30.5ZM30.5 51.375V47.625H56.75V51.375H30.5ZM30.5 40.125V36.375H56.75V40.125H30.5ZM66.125 30.75V23.25H58.625V19.5H66.125V12H69.875V19.5H77.375V23.25H69.875V30.75H66.125Z" fill="#003E7E"/>
</svg>
