<svg width="85" height="86" viewBox="0 0 85 86" fill="none" xmlns="http://www.w3.org/2000/svg">
<path d="M17.7095 25.543L13.3958 28.4223C10.3003 30.4836 8.75264 31.5142 7.91327 33.0867C7.07389 34.6628 7.08097 36.5115 7.09514 40.2055C7.10931 44.6609 7.15181 49.1942 7.26514 53.7842C7.53785 64.6748 7.67243 70.1184 11.6781 74.1205C15.6801 78.1226 21.1981 78.2642 32.2339 78.5405C39.0789 78.7116 45.927 78.7116 52.772 78.5405C63.8078 78.2642 69.3258 78.1261 73.3278 74.1205C77.3299 70.1184 77.4681 64.6748 77.7408 53.7842C77.8541 49.1942 77.8966 44.6609 77.9108 40.209C77.9214 36.5115 77.9285 34.6628 77.0891 33.0903C76.2533 31.5142 74.7056 30.4836 71.6101 28.4223L67.2928 25.543" stroke="#003E7E" stroke-width="4" stroke-linecap="round" stroke-linejoin="round"/>
<path d="M7.08447 36.168L31.568 50.8588C36.8947 54.0534 39.558 55.6471 42.5011 55.6471C45.4443 55.6471 48.1076 54.0534 53.4343 50.8553L77.9178 36.168" stroke="#003E7E" stroke-width="4" stroke-linecap="round" stroke-linejoin="round"/>
<path d="M17.7095 43.2507V22.0007C17.7095 15.3211 17.7095 11.9848 19.7849 9.9094C21.8603 7.83398 25.1966 7.83398 31.8761 7.83398H53.1261C59.8057 7.83398 63.142 7.83398 65.2174 9.9094C67.2928 11.9848 67.2928 15.3211 67.2928 22.0007V43.2507" stroke="#003E7E" stroke-width="4" stroke-linecap="round" stroke-linejoin="round"/>
<path d="M28.3345 36.1675L34.0436 19.8581C34.1972 19.4432 34.4753 19.086 34.8399 18.8356C35.2046 18.5851 35.6378 18.4536 36.0801 18.4592C37.008 18.4592 37.8297 19.0258 38.1201 19.8581L43.8293 36.1675M53.1261 18.4592V36.1675M31.4334 30.2635H40.7303" stroke="#003E7E" stroke-width="4" stroke-linecap="round" stroke-linejoin="round"/>
</svg>
